<svg width="165" height="164" viewBox="0 0 165 164" fill="none" xmlns="http://www.w3.org/2000/svg">
<path d="M30.8601 149.795C29.0112 148.528 27.6286 146.839 25.708 145.694C25.8514 146.752 25.9948 147.811 26.1383 148.869C35.2086 137.77 43.3928 126.014 52.7295 115.098C61.7589 104.538 71.285 94.4007 81.267 84.7263C101.733 64.889 124.119 46.9295 147.638 30.797C149.661 29.4077 147.858 26.1202 145.728 27.4535C121.287 42.6903 98.7574 60.5887 78.1481 80.65C67.8537 90.6755 58.0508 101.19 48.7807 112.151C39.654 122.951 30.128 134.259 22.9372 146.452C22.4302 147.312 22.6965 148.778 23.7004 149.195C25.8566 150.106 28.1254 150.264 30.3431 151.032C31.1215 151.307 31.4542 150.203 30.8601 149.795Z" fill="black"/>
<path d="M147.699 21.7993C134.819 18.1097 120.734 16.5221 107.541 19.4737C105.508 19.9267 105.876 23.3057 108.017 23.1225C121.169 22.0131 133.979 21.7232 146.931 24.7308C148.837 25.1888 149.594 22.3489 147.699 21.7993Z" fill="black"/>
<path d="M147.991 23.2497C144.677 32.9342 144.503 43.0821 147.638 52.8328C148.129 54.3595 150.567 53.7285 150.071 52.1966C147.028 42.9141 146.752 33.0209 149.441 23.6214C149.702 22.7002 148.298 22.354 147.991 23.2497Z" fill="black"/>
</svg>
